{"title":"The.Last.Witch.Hunter.2015.HD-TS.XVID.AC3.HQ.Hive-CM8","uid":12661516,"size":1520863901,"categoryP":"video","categoryS":"movies","magnet":"?xt=urn:btih:6616a3c9f97dc646543924abfe3675ad286d3472&amp;dn=The.Last.Witch.Hunter.2015.HD-TS.XVID.AC3.HQ.Hive-CM8&amp;tr=udp%3A%2F%2Ftracker.leechers-paradise.org%3A6969&amp;tr=udp%3A%2F%2Fzer0day.ch%3A1337&amp;tr=udp%3A%2F%2Fopen.demonii.com%3A1337&amp;tr=udp%3A%2F%2Ftracker.coppersurfer.tk%3A6969&amp;tr=udp%3A%2F%2Fexodus.desync.com%3A6969","seeders":0,"leechers":0,"uploader":"TvTeam","files":4,"time":1446301655,"description":"------------------------------------------------------------------------\r\n\r  https://www.torrenting.com\r\n\r\nSign up is OPEN - for time being. Come and have fun.\r\n\r\n------------------------------------------------------------------------[center][img]http://img905.imageshack.us/img905/3427/j6Sl1s.jpg[/img]\r\n\r\n \r\n[color=blue][size=4][b]The.Last.Witch.Hunter.2015.HD-TS.XVID.AC3.HQ.Hive-CM8[/b][/size][/color]\r\n\r\nThx Hive\r\n\r\nCM8 Doing It Right The First Time \r\n\r\nSources:\r\n\r\nVideo: Exclusive HD-CAM \r\nAudio: Sweet Line Big Thx to S4NDM4N \r\nthx guys\r\n\r\nNotes:\r\n\r\ngot exclusive cam very early, quality is very nice, no movements no focus problems, you can see the darker scenes too\r\nperfect for this kind of movie\r\naudio as usual perfect line from S4NDM4N, top notch man\r\n\r\nEncode:\r\n\r\nadded brightness,contrast and only slightly sharpness\r\nline is lipsynced to my video\r\n\r\ngot very nice\r\nwill do me till retail\r\nenjoy\r\n\r\nVideo: 720x272 @bitrate 1800 2pass\r\nAudio: English AC3 2.0 Line Stereo\r\nSample: yes included\r\n\r\nPS: video is complete, only 30secs removed due to security control\r\nNow some may say they have this source and line audio lol ya know its just a reencode beware the wannabe ;)\r\n\r\n \nhttp://www.imdb.com/title/tt1618442/\r\n\r\n\r\nGeneral\r\nComplete name                  : The.Last.Witch.Hunter.2015.HD-TS.XVID.AC3.HQ.Hive-CM8.avi\r\nFormat                         : AVI\r\nFormat/Info                    : Audio Video Interleave\r\nFile size                      : 1.40 GiB\r\nDuration                       : 1h 36mn\r\nOverall bit rate               : 2 070 Kbps\r\nWriting application            : Nandub v1.0rc2\r\nWriting library                : Nandub build 1853/release\r\n\r\nVideo\r\nID                             : 0\r\nFormat                         : MPEG-4 Visual\r\nFormat profile                 : Advanced   \r\nFormat settings, BVOP          : 2\r\nFormat settings, QPel          : Yes\r\nFormat settings, GMC           : No warppoints\r\nFormat settings, Matrix        : Default (H.263)\r\nMuxing mode                    : Packed bitstream\r\nCodec ID                       : XVID\r\nCodec ID/Hint                  : XviD\r\nDuration                       : 1h 36mn\r\nBit rate                       : 1 805 Kbps\r\nWidth                          : 720 pixels\r\nHeight                         : 272 pixels\r\nDisplay aspect ratio           : 2.647\r\nFrame rate                     : 25.000 fps\r\nColor space                    : YUV\r\nChroma subsampling             : 4:2:0\r\nBit depth                      : 8 bits\r\nScan type                      : Progressive\r\nCompression mode               : Lossy\r\nBits/(Pixel*Frame)             : 0.369\r\nStream size                    : 1.22 GiB (87%)\r\nWriting library                : XviD 1.2.1 (UTC 2008-12-04)\r\n\r\nAudio\r\nID                             : 1\r\nFormat                         : AC-3\r\nFormat/Info                    : Audio Coding 3\r\nMode extension                 : CM (complete main)\r\nFormat settings, Endianness    : Big\r\nCodec ID                       : 2000\r\nDuration                       : 1h 36mn\r\nBit rate mode                  : Constant\r\nBit rate                       : 256 Kbps\r\nChannel(s)                     : 2 channels\r\nChannel positions              : Front: L R\r\nSampling rate                  : 48.0 KHz\r\nBit depth                      : 16 bits\r\nCompression mode               : Lossy\r\nStream size                    : 177 MiB (12%)\r\nAlignment                      : Split accross interleaves\r\nInterleave, duration           : 40 ms (1.00 video frame)\r\nInterleave, preload duration   : 500 ms\r\n\r\n\r\nScreens \r\n\r\n[img]http://img907.imageshack.us/img907/6451/ZjDVpP.png[/img]\r\n[img]http://img911.imageshack.us/img911/5416/sHGUg5.png[/img]\r\n[img]http://img907.imageshack.us/img907/9222/DkElPd.png[/img]\r\n[img]http://img911.imageshack.us/img911/6057/raS9VM.png[/img]\r\n[img]http://img903.imageshack.us/img903/5713/KrEiUt.png[/img]\r\n[img]http://img905.imageshack.us/img905/958/JbYYCY.png[/img]\r\n[img]http://img908.imageshack.us/img908/574/6ec3tm.png[/img]\r\n[img]http://img911.imageshack.us/img911/1698/necHEW.png[/img]\r\n\r\n\r\n\r\nPlot\r\n\r\nThe last witch hunter is all that stands between humanity and the combined forces of the most horrifying witches in history.\r\n\r\nCast\r\n\r\nVin Diesel \t        ... \tKaulder\r\nRose Leslie \t        ... \tChloe\r\nElijah Wood \t        ... \tDolan 37th\r\nlafur Darri lafsson \t... \tBelial\r\nJulie Engelbrecht \t... \tWitch Queen\r\nMichael Caine \t        ... \tDolan 36th \r\n\r\n\r\nSugarB,iNCOMiNG,Izzy,MenaceIISociety,jiinx,SiMPLE,CherryBomb\r\nranbailey,ViSiON,UnKnOwN,YanKeeS,COPYxRIGHT,THC,VAiN,ACAB,DRs\r\nLKRG,Kingstoner,SiMPLE,TiTAN,cadance,PLAYNOW\r\nUnevano,BigVik,Rapeseed,SAFC,goldadvance,KaN1vE,Pinnz,Wayne,HiGH\r\nSeeN,jtr,Limey,ICONiK,TED,rkofan,mrtoke09\r\nMr Hive\r\n\r\n\r\n\r\n\r\nLOOKING FOR ANYTHING YOU WANT TO LOOK AND SOUND BETTER\r\n\r\nCOME FIND US WE DONT BITE \r\n  [/center]","torrent":{"xt":"urn:btih:6616a3c9f97dc646543924abfe3675ad286d3472","amp;dn":"The.Last.Witch.Hunter.2015.HD-TS.XVID.AC3.HQ.Hive-CM8","amp;tr":["udp%3A%2F%2Ftracker.leechers-paradise.org%3A6969","udp%3A%2F%2Fzer0day.ch%3A1337","udp%3A%2F%2Fopen.demonii.com%3A1337","udp%3A%2F%2Ftracker.coppersurfer.tk%3A6969","udp%3A%2F%2Fexodus.desync.com%3A6969"],"infoHash":"6616a3c9f97dc646543924abfe3675ad286d3472","infoHashBuffer":{"type":"Buffer","data":[102,22,163,201,249,125,198,70,84,57,36,171,254,54,117,173,40,109,52,114]},"announce":[],"urlList":[]}}